# xmcd
#
# Track frame offsets: 
#        150
#        27370
#        45974
#        70537
#        96440
#        116809
#        147332
#        170867
#        207414
#        230930
#        255407
#        283322
#        313037
#        328328
#
# Disc length: 4704 seconds
#
# Revision: 2
# Processed by: cddbd v1.5.2PL0 Copyright (c) Steve Scherf et al.
# Submitted via: ExactAudioCopy v0.95b4
#
DISCID=dd125e0e
DTITLE=Dzem - Zlota kolekcja
DYEAR=2005
DGENRE=Blues
TTITLE0=Zloty paw
TTITLE1=Harley moj
TTITLE2=Naiwne pytania
TTITLE3=Sen o Victorii
TTITLE4=Jak malowany ptak
TTITLE5=Autsajder
TTITLE6=Mala Aleja Roz
TTITLE7=Modlitwa III - pozwol mi
TTITLE8=Czerwony jak cegla
TTITLE9=Whisky
TTITLE10=Wehikul czasu - to bylby cud
TTITLE11=List do M.
TTITLE12=Zapal swieczke
TTITLE13=Skazany na bluesa
EXTD=
EXTT0=
EXTT1=
EXTT2=
EXTT3=
EXTT4=
EXTT5=
EXTT6=
EXTT7=
EXTT8=
EXTT9=
EXTT10=
EXTT11=
EXTT12=
EXTT13=
PLAYORDER=
